<?xml version="1.0" standalone="no"?><!DOCTYPE svg PUBLIC "-//W3C//DTD SVG 1.1//EN" "http://www.w3.org/Graphics/SVG/1.1/DTD/svg11.dtd"><svg t="1674027619106" class="icon" viewBox="0 0 1024 1024" version="1.1" xmlns="http://www.w3.org/2000/svg" p-id="1409" xmlns:xlink="http://www.w3.org/1999/xlink" width="48" height="48"><path d="M419.037 287.953h413.124c17.673 0 32-14.327 32-32s-14.327-32-32-32H419.037c-17.673 0-32 14.327-32 32s14.327 32 32 32zM419.028 543.17h411.608c17.673 0 32-14.327 32-32s-14.327-32-32-32H419.028c-17.673 0-32 14.327-32 32s14.327 32 32 32zM832.161 735.802H419.037c-17.673 0-32 14.327-32 32s14.327 32 32 32h413.124c17.673 0 32-14.327 32-32s-14.327-32-32-32z" fill="#fefefe" p-id="1410"></path><path d="M256.037 255.953m-64 0a64 64 0 1 0 128 0 64 64 0 1 0-128 0Z" fill="#fefefe" p-id="1411"></path><path d="M256.037 510.787m-64 0a64 64 0 1 0 128 0 64 64 0 1 0-128 0Z" fill="#fefefe" p-id="1412"></path><path d="M256.037 767.621m-64 0a64 64 0 1 0 128 0 64 64 0 1 0-128 0Z" fill="#fefefe" p-id="1413"></path></svg>