<?xml version="1.0" standalone="no"?><!DOCTYPE svg PUBLIC "-//W3C//DTD SVG 1.1//EN" "http://www.w3.org/Graphics/SVG/1.1/DTD/svg11.dtd"><svg t="1645665973855" class="icon" viewBox="0 0 1024 1024" version="1.1" xmlns="http://www.w3.org/2000/svg" p-id="8567" width="20" height="20" xmlns:xlink="http://www.w3.org/1999/xlink"><defs><style type="text/css"></style></defs><path d="M445.125 136.783c48.699-37.455 86.567-16.05 86.567 42.791v668.692c0 58.84-37.868 74.89-81.132 37.435L255.783 725.209h-108.19c-59.51 0.02-108.208-48.109-108.208-106.95V398.908c0-58.84 48.699-106.988 108.209-106.988h102.794l194.757-155.136zM903.62 726.469a348.835 348.835 0 0 1-24.556 26.525c-15.833 15.4-41.709 15.203-57.66-0.078a38.597 38.597 0 0 1 0.769-56.714l3.032-2.836c105.925-107.284 105.098-276.204-1.516-382.543a157.519 157.519 0 0 0-3.25-2.973 38.597 38.597 0 0 1-1.26-56.714c15.833-15.439 41.709-15.833 57.68-0.551a340.93 340.93 0 0 1 24.95 26.525c109.685 129.516 110.493 319.055 1.81 449.359zM754.708 625.113c-6.578 9.984-13.785 19.101-21.465 27.254-14.139 15.084-37.179 14.67-51.357-0.355l-0.71-0.728c-15.28-16.207-14.513-42.614 1.38-57.817 3.288-3.15 5.611-5.514 6.242-6.34 34.304-45.017 33.024-110.396-3.407-153.877a54.489 54.489 0 0 0-2.993-2.914c-16.207-15.006-17.27-41.55-2.167-57.836 14.336-15.459 37.928-16.168 52.421-0.867a203.197 203.197 0 0 1 20.914 26.152c45.075 67.013 45.548 159.803 1.142 227.328z" p-id="8568" fill="#fefefe"></path></svg>