<?xml version="1.0" standalone="no"?><!DOCTYPE svg PUBLIC "-//W3C//DTD SVG 1.1//EN" "http://www.w3.org/Graphics/SVG/1.1/DTD/svg11.dtd"><svg t="1647920348075" class="icon" viewBox="0 0 1024 1024" version="1.1" xmlns="http://www.w3.org/2000/svg" p-id="6969" xmlns:xlink="http://www.w3.org/1999/xlink" width="48" height="48"><defs><style type="text/css">@font-face { font-family: feedback-iconfont; src: url("//at.alicdn.com/t/font_1031158_u69w8yhxdu.woff2?t=1630033759944") format("woff2"), url("//at.alicdn.com/t/font_1031158_u69w8yhxdu.woff?t=1630033759944") format("woff"), url("//at.alicdn.com/t/font_1031158_u69w8yhxdu.ttf?t=1630033759944") format("truetype"); }
</style></defs><path d="M894.848 133.461333a46.037333 46.037333 0 0 1 26.410667 40.917334v675.242666a46.037333 46.037333 0 0 1-26.368 40.917334 53.12 53.12 0 0 1-51.2-2.432L303.445333 550.485333a45.653333 45.653333 0 0 1-22.058666-38.4 45.653333 45.653333 0 0 1 22.058666-38.4l540.245334-337.621333a52.608 52.608 0 0 1 27.818666-7.893333 52.778667 52.778667 0 0 1 23.338667 5.290666zM195.968 128a42.666667 42.666667 0 0 1 42.666667 42.666667v682.666666a42.666667 42.666667 0 0 1-42.666667 42.666667H170.666667a42.666667 42.666667 0 0 1-42.666667-42.666667V170.666667a42.666667 42.666667 0 0 1 42.666667-42.666667z" p-id="6970" fill="#fefefe"></path></svg>