<?xml version="1.0" standalone="no"?><!DOCTYPE svg PUBLIC "-//W3C//DTD SVG 1.1//EN" "http://www.w3.org/Graphics/SVG/1.1/DTD/svg11.dtd"><svg t="1647920008262" class="icon" viewBox="0 0 1024 1024" version="1.1" xmlns="http://www.w3.org/2000/svg" p-id="6601" width="48" height="48" xmlns:xlink="http://www.w3.org/1999/xlink"><defs><style type="text/css">@font-face { font-family: feedback-iconfont; src: url("//at.alicdn.com/t/font_1031158_u69w8yhxdu.woff2?t=1630033759944") format("woff2"), url("//at.alicdn.com/t/font_1031158_u69w8yhxdu.woff?t=1630033759944") format("woff"), url("//at.alicdn.com/t/font_1031158_u69w8yhxdu.ttf?t=1630033759944") format("truetype"); }
</style></defs><path d="M154.453333 890.538667a46.037333 46.037333 0 0 1-26.410666-40.917334V174.378667a46.037333 46.037333 0 0 1 26.368-40.917334 53.12 53.12 0 0 1 51.2 2.432l540.245333 337.621334a45.653333 45.653333 0 0 1 22.058667 38.4 45.653333 45.653333 0 0 1-22.058667 38.4L205.610667 887.936a52.608 52.608 0 0 1-27.818667 7.893333 52.778667 52.778667 0 0 1-23.338667-5.290666zM853.333333 896a42.666667 42.666667 0 0 1-42.666666-42.666667V170.666667a42.666667 42.666667 0 0 1 42.666666-42.666667h25.301334a42.666667 42.666667 0 0 1 42.666666 42.666667v682.666666a42.666667 42.666667 0 0 1-42.666666 42.666667z" p-id="6602" fill="#fefefe"></path></svg>